<svg width="171" height="160" viewBox="0 0 171 160" fill="none" xmlns="http://www.w3.org/2000/svg" style={{ overflow: 'visible' }}>
<image
    href="sua-imagem-url.png"
    x="150"  // Ajuste a posição para que ultrapasse
    y="50"   // Ajuste a posição para que ultrapasse
    width="100"
    height="100"
/>
<path d="M153.421 0.783447C146.66 0.783447 140.821 11.633 138.117 27.318C135.067 19.1785 130.898 14.1575 126.3 14.1575C119.539 14.1575 113.7 25.007 110.996 40.692C107.946 32.5525 103.777 27.5314 99.1791 27.5314C92.4175 27.5314 86.5792 38.381 83.8745 54.066C80.8248 45.9265 76.656 40.9055 72.0581 40.9055C65.2965 40.9055 59.4581 51.755 56.7535 67.44C53.7038 59.3005 49.5349 54.2795 44.937 54.2795C38.1754 54.2795 32.3371 65.129 29.6324 80.814C26.5827 72.6745 22.4138 67.6535 17.8159 67.6535C8.48026 67.6535 0.907227 88.3224 0.907227 113.827C0.907227 139.331 8.48026 160 17.8159 160C24.5776 160 30.4159 149.15 33.1205 133.465C36.1702 141.605 40.3391 146.626 44.937 146.626C51.6986 146.626 57.5369 135.776 60.2416 120.091C63.2913 128.231 67.4602 133.252 72.0581 133.252C78.8197 133.252 84.658 122.402 87.3626 106.717C90.4123 114.857 94.5812 119.878 99.1791 119.878C105.941 119.878 111.779 109.028 114.484 93.3434C117.533 101.483 121.702 106.504 126.3 106.504C133.062 106.504 138.9 95.6544 141.605 79.9694C144.654 88.1089 148.823 93.1299 153.421 93.1299C162.757 93.1299 170.33 72.461 170.33 46.9567C170.33 21.4524 162.766 0.783447 153.421 0.783447Z" fill="#DEC8FE"/>
</svg>
